<?xml version="1.0" encoding="utf-8"?>
<!-- Generator: Adobe Illustrator 27.0.0, SVG Export Plug-In . SVG Version: 6.00 Build 0)  -->
<svg version="1.1" id="Layer_1" xmlns="http://www.w3.org/2000/svg" xmlns:xlink="http://www.w3.org/1999/xlink" x="0px" y="0px"
	 viewBox="0 0 100 100" style="enable-background:new 0 0 100 100;" xml:space="preserve">
<style type="text/css">
	.st0{fill:#84cc16;}
</style>
<g>
	<path class="st0" d="M76.4,83.6l-50.2-1.2c-0.1,0-0.1,0-0.1,0c-3.8-0.5-7.8-1.1-11.4-2.7C5.9,76,0.4,66.4,1.4,57
		c0.6-5,2.9-9.6,6.4-12.8c3.7-3.4,8.8-5,13.6-4.4c3.4,0.4,6.4,1.9,8.6,4.2c2.1,2.2,3.3,5.1,3.4,7.9l4.3,0.6c0.7,0.1,1.1,0.7,1,1.4
		c-0.1,0.7-0.7,1.1-1.4,1L32,54.2c-0.6-0.1-1.1-0.7-1.1-1.3c0.2-2.5-0.8-5.2-2.7-7.2c-1.8-1.9-4.3-3.1-7.1-3.5
		C17,41.7,12.7,43.1,9.5,46c-3.1,2.8-5.1,6.8-5.6,11.2C3,65.5,8,74.2,15.6,77.5c3.3,1.5,7.1,2,10.7,2.5l50.1,1.2c2.8,0,6-0.1,9-0.9
		c1.8-0.5,5-1.8,6.7-4.7c0.7-1.2,1.1-2.7,1.2-4.3c0.1-1.4,0-3.3-1-5c-1.3-2.2-4.2-3.5-6.7-3c-2.5,0.5-4.7,2.9-5,5.4
		c-0.1,0.7-0.7,1.2-1.4,1.1c-0.7-0.1-1.2-0.7-1.1-1.4c0.4-3.6,3.4-6.8,7-7.5c3.6-0.7,7.5,1,9.4,4.2c1,1.7,1.5,4,1.3,6.4
		c-0.1,2-0.6,3.9-1.5,5.4c-1.6,2.8-4.5,4.8-8.2,5.9C82.8,83.5,79.3,83.6,76.4,83.6L76.4,83.6z"/>
	<path class="st0" d="M47.7,43.2c-0.4,0-0.7-0.2-0.9-0.4c-0.2-0.3-0.3-0.6-0.3-1C47.3,36.6,45,31,40.7,28c-4.2-3-10.4-3.3-14.9-0.7
		s-7.4,8-7,13.1c0.1,0.7-0.5,1.3-1.1,1.3c-0.7,0.1-1.3-0.5-1.3-1.1c-0.4-6.2,2.9-12.4,8.3-15.5c5.4-3.1,12.4-2.7,17.5,0.8
		c4.7,3.3,7.4,9,7,14.7l4.3-0.1h0c0.7,0,1.2,0.5,1.2,1.2c0,0.7-0.5,1.2-1.2,1.3L47.7,43.2C47.7,43.2,47.7,43.2,47.7,43.2L47.7,43.2z
		"/>
	<path class="st0" d="M83.7,33.6c-0.4,0-0.8-0.2-1.1-0.6c-2.1-3.7-4.1-5.6-7.6-7.2c-3.3-1.6-7.1-1.5-10,0.2c-0.3,0.2-0.7,0.2-1,0.1
		c-0.3-0.1-0.6-0.3-0.7-0.7c-1.9-4.3-6.5-7.2-11.2-7c-4.7,0.1-9.1,3.3-10.8,7.7c-0.2,0.6-1,1-1.6,0.7c-0.6-0.2-1-1-0.7-1.6
		c2-5.3,7.4-9.1,13-9.3c5.2-0.1,10.4,2.8,12.9,7.3c3.5-1.5,7.5-1.4,11.2,0.2c4,1.9,6.3,4.1,8.7,8.2c0.3,0.6,0.1,1.3-0.5,1.7
		C84.1,33.6,83.9,33.6,83.7,33.6L83.7,33.6z"/>
	<path class="st0" d="M90.3,62.9c-0.4,0-0.8-0.2-1-0.5c-0.4-0.6-0.3-1.3,0.3-1.7c3.7-2.7,6.1-7.3,6.1-11.9c0-4.6-2.3-9.2-6-12
		c-1.3-1-3.4-2.2-5.8-2.2h0c-3.1,0-6.3,2.3-8,5.6c-1.8,3.7-2.1,7.9-1.9,10.8c0,0.3-0.1,0.6-0.3,0.9c-0.2,0.2-0.5,0.4-0.9,0.4
		c-0.9,0-1.9,0.2-2.9,0.3c-0.6,0.1-1.2,0.2-1.9,0.2l0.2,5.2c0,0.7-0.5,1.3-1.2,1.3c-0.7,0-1.3-0.5-1.3-1.2l-0.3-6.4
		c0-0.3,0.1-0.6,0.3-0.9c0.2-0.2,0.5-0.4,0.9-0.4c0.9,0,1.9-0.2,2.9-0.3c0.6-0.1,1.2-0.2,1.9-0.2c0-3.1,0.4-7.2,2.2-10.9
		c2.1-4.2,6.1-6.9,10.2-6.9H84c3,0,5.6,1.4,7.2,2.7c4.3,3.2,7,8.6,7,14c0,5.4-2.7,10.7-7.1,13.9C90.9,62.8,90.6,62.9,90.3,62.9
		L90.3,62.9z"/>
	<path class="st0" d="M43.3,57.7h-5.1c-0.7,0-1.2-0.6-1.2-1.2l0-5.1c0-0.7,0.6-1.2,1.2-1.2h5.1c0.7,0,1.2,0.6,1.2,1.2v5.1
		C44.5,57.1,44,57.7,43.3,57.7z M39.4,55.2h2.7v-2.7h-2.7V55.2z"/>
	<path class="st0" d="M58.5,45.7h-5.1c-0.7,0-1.2-0.6-1.2-1.2v-5.1c0-0.7,0.6-1.2,1.2-1.2h5.1c0.7,0,1.2,0.6,1.2,1.2v5.1
		C59.8,45.2,59.2,45.7,58.5,45.7z M54.6,43.3h2.7v-2.7h-2.7V43.3z"/>
	<path class="st0" d="M54.4,70.1h-5.1c-0.7,0-1.2-0.6-1.2-1.2v-5.1c0-0.7,0.6-1.2,1.2-1.2h5.1c0.7,0,1.2,0.6,1.2,1.2v5.1
		C55.6,69.6,55,70.1,54.4,70.1z M50.5,67.7h2.7V65h-2.7V67.7z"/>
	<path class="st0" d="M26.1,67.5h-5.1c-0.7,0-1.2-0.6-1.2-1.2v-5.1c0-0.7,0.6-1.2,1.2-1.2h5.1c0.7,0,1.2,0.6,1.2,1.2v5.1
		C27.3,67,26.7,67.5,26.1,67.5L26.1,67.5z M22.1,65.1h2.7v-2.7h-2.7L22.1,65.1z"/>
	<path class="st0" d="M69.4,65.6h-5.1c-0.7,0-1.2-0.6-1.2-1.2v-5.1c0-0.7,0.6-1.2,1.2-1.2h5.1c0.7,0,1.2,0.6,1.2,1.2v5.1
		C70.7,65.1,70.1,65.6,69.4,65.6z M65.5,63.2h2.7v-2.7h-2.7V63.2z"/>
	<path class="st0" d="M81.4,75h-5.1c-0.7,0-1.2-0.6-1.2-1.2v-5.1c0-0.7,0.6-1.2,1.2-1.2h5.1c0.7,0,1.2,0.6,1.2,1.2v5.1
		C82.6,74.5,82.1,75,81.4,75z M77.5,72.5h2.7v-2.7h-2.7V72.5z"/>
	<path class="st0" d="M37.6,78.2c-0.1,0-0.2,0-0.3-0.1c-0.7-0.2-1-0.9-0.9-1.5c0.8-2.8,0.2-5.9-1.7-8.2c-1.8-2.3-4.7-3.6-7.7-3.4
		c-0.7,0-1.3-0.5-1.3-1.2c0-0.7,0.5-1.3,1.2-1.3c3.7-0.2,7.4,1.4,9.7,4.3c2.3,2.9,3.1,6.9,2.1,10.4C38.6,77.8,38.1,78.2,37.6,78.2
		L37.6,78.2z"/>
	<path class="st0" d="M37.7,72.8c-0.2,0-0.3,0-0.5-0.1c-0.6-0.3-0.9-1-0.7-1.6c1-2.4,2.9-4.5,5.3-5.7c2.4-1.2,5.2-1.4,7.7-0.8
		c0.7,0.2,1.1,0.9,0.9,1.5c-0.2,0.7-0.9,1.1-1.5,0.9c-2-0.5-4.2-0.3-6,0.6c-1.8,0.9-3.3,2.5-4.1,4.4C38.6,72.5,38.2,72.8,37.7,72.8
		L37.7,72.8z"/>
</g>
</svg>
